<svg xmlns="http://www.w3.org/2000/svg" xmlns:xlink="http://www.w3.org/1999/xlink" viewBox="0 0 492 492"><defs><style>.cls-1{fill:url(#radial-gradient);}.cls-2{fill:url(#radial-gradient-2);}.cls-3,.cls-5,.cls-8{fill:#fff;}.cls-4{fill:url(#radial-gradient-3);}.cls-5,.cls-8{font-size:82.37px;font-family:TwCenMT-CondensedExtraBold, Tw Cen MT Condensed Extra Bold;font-weight:800;}.cls-5{letter-spacing:0.02em;}.cls-6{fill:url(#radial-gradient-4);}.cls-7{fill:url(#radial-gradient-5);}.cls-8{letter-spacing:0.02em;}.cls-9{fill:url(#radial-gradient-6);}.cls-10{fill:url(#radial-gradient-7);}</style><radialGradient id="radial-gradient" cx="246" cy="246" r="246" gradientUnits="userSpaceOnUse"><stop offset="0" stop-color="#f2f2f2"/><stop offset="0.45" stop-color="#f0f0f0"/><stop offset="0.68" stop-color="#e8e8e8"/><stop offset="0.87" stop-color="#dadada"/><stop offset="1" stop-color="#ccc"/></radialGradient><radialGradient id="radial-gradient-2" cx="95.19" cy="255.88" r="69.33" gradientUnits="userSpaceOnUse"><stop offset="0" stop-color="#f60414"/><stop offset="0.34" stop-color="#f60616"/><stop offset="0.53" stop-color="#f70e1c"/><stop offset="0.69" stop-color="#f91c28"/><stop offset="0.82" stop-color="#fb3037"/><stop offset="0.93" stop-color="#fd494c"/><stop offset="1" stop-color="#ff5a5a"/></radialGradient><radialGradient id="radial-gradient-3" cx="95.19" cy="255.88" r="51.27" xlink:href="#radial-gradient-2"/><radialGradient id="radial-gradient-4" cx="240.14" cy="255.88" r="69.33" xlink:href="#radial-gradient-2"/><radialGradient id="radial-gradient-5" cx="240.14" cy="255.88" r="51.27" xlink:href="#radial-gradient-2"/><radialGradient id="radial-gradient-6" cx="379.74" cy="255.88" r="69.33" xlink:href="#radial-gradient-2"/><radialGradient id="radial-gradient-7" cx="379.74" cy="255.88" r="51.27" xlink:href="#radial-gradient-2"/></defs><g id="Layer_2" data-name="Layer 2"><g id="Layer_1-2" data-name="Layer 1"><circle class="cls-1" cx="246" cy="246" r="246"/><polygon class="cls-2" points="31 218.83 31 292.94 95.19 330 159.37 292.94 159.37 218.83 95.19 181.77 31 218.83"/><polygon class="cls-3" points="38.76 223.31 38.76 288.46 95.19 321.04 151.62 288.46 151.62 223.31 95.19 190.72 38.76 223.31"/><polygon class="cls-4" points="47.72 228.48 47.72 283.29 95.19 310.7 142.66 283.29 142.66 228.48 95.19 201.07 47.72 228.48"/><text class="cls-5" transform="translate(63.01 278.4)">M</text><polygon class="cls-6" points="175.95 218.83 175.95 292.94 240.14 330 304.32 292.94 304.32 218.83 240.14 181.77 175.95 218.83"/><polygon class="cls-3" points="183.71 223.31 183.71 288.46 240.14 321.04 296.57 288.46 296.57 223.31 240.14 190.72 183.71 223.31"/><polygon class="cls-7" points="192.67 228.48 192.67 283.29 240.14 310.7 287.61 283.29 287.61 228.48 240.14 201.07 192.67 228.48"/><text class="cls-8" transform="translate(219.97 280.4)">D</text><polygon class="cls-9" points="315.56 218.83 315.56 292.94 379.74 330 443.93 292.94 443.93 218.83 379.74 181.77 315.56 218.83"/><polygon class="cls-3" points="323.31 223.31 323.31 288.46 379.74 321.04 436.17 288.46 436.17 223.31 379.74 190.72 323.31 223.31"/><polygon class="cls-10" points="332.27 228.48 332.27 283.29 379.74 310.7 427.21 283.29 427.21 228.48 379.74 201.07 332.27 228.48"/><text class="cls-5" transform="translate(356.57 278.4)">H</text></g></g></svg>