<svg xmlns="http://www.w3.org/2000/svg" xmlns:xlink="http://www.w3.org/1999/xlink" viewBox="0 0 492 492"><defs><style>.cls-1{fill:url(#radial-gradient);}.cls-2,.cls-3{font-size:167.28px;font-family:BookmanOldStyle, Bookman Old Style;}.cls-2,.cls-3,.cls-4{fill:#fff;}.cls-2{letter-spacing:0.02em;}.cls-3{letter-spacing:0.02em;}</style><radialGradient id="radial-gradient" cx="246" cy="246" r="246" gradientUnits="userSpaceOnUse"><stop offset="0" stop-color="#f60414"/><stop offset="0.34" stop-color="#f60616"/><stop offset="0.53" stop-color="#f70e1c"/><stop offset="0.69" stop-color="#f91c28"/><stop offset="0.82" stop-color="#fb3037"/><stop offset="0.93" stop-color="#fd494c"/><stop offset="1" stop-color="#ff5a5a"/></radialGradient></defs><g id="Layer_2" data-name="Layer 2"><g id="Layer_1-2" data-name="Layer 1"><circle class="cls-1" cx="246" cy="246" r="246"/><text class="cls-2" transform="translate(60.77 333.91)">M</text><text class="cls-3" transform="translate(205.23 279.6)">T</text><text class="cls-3" transform="translate(304.08 333.91)">R</text><path class="cls-4" d="M87,130.17c2.21,1.37,3.1,3.62,2.78,6.76s-1.6,6.81-3.77,11.22c-.27.56-.51,1-.73,1.44,2.23,1.08,5,2.26,8.27,3.57q-1,2.07-2,4.19-4.26-2.32-10.48-5.16-5.34-2.43-9.77-4c.54-1.2,1.09-2.38,1.65-3.56.17-.38.67-1.47,1.51-3.24s1.59-3.26,2.23-4.46a16.78,16.78,0,0,1,5.24-6.37C83.79,129.36,85.48,129.26,87,130.17Zm-1.32,4.2c-2.51-1.47-5.36.4-8.22,6a47.23,47.23,0,0,0-2.07,4.75q2.6,1,7.9,3.6c.27-.53.61-1.19,1-2C87.66,139.88,88.29,135.94,85.65,134.37Z"/><path class="cls-4" d="M102.46,99.76q2.34,2.23,4.39,4.15t3.87,3.53c5.67,5.16,5.85,10.52,1.06,16.74a20.62,20.62,0,0,1-3.71,3.9,9.32,9.32,0,0,1-3.81,1.86,8.52,8.52,0,0,1-4.12-.16,16.48,16.48,0,0,1-4.55-2.19q-2.1-1.41-4.49-2.94T86,121.41c.9-1.38,1.82-2.75,2.75-4.09q5.15,4,8.18,6.11a23.91,23.91,0,0,0,4.19,2.45,7.46,7.46,0,0,0,3.36.63,5.44,5.44,0,0,0,2.9-1,12.72,12.72,0,0,0,2.72-2.76,13.43,13.43,0,0,0,2-3.44,5.43,5.43,0,0,0,.24-3,7.7,7.7,0,0,0-1.48-3.06,24.14,24.14,0,0,0-3.49-3.54c-.91-.78-2-1.71-3.34-2.75s-2.85-2.26-4.61-3.6Q100.92,101.51,102.46,99.76Z"/><path class="cls-4" d="M140.77,94.26q-1.64,1.26-3.24,2.58a48.43,48.43,0,0,0-6.52-3,5.74,5.74,0,0,0-3.85-.08,14.28,14.28,0,0,0-3.72,2.75c-1,.88-1.78,1.69-2.49,2.41q3.83,4,6.77,6.68c-1,.94-1.93,1.89-2.88,2.86q-3.54-4-8-8.5-4.26-4.26-7.74-7.21c.81-.83,1.64-1.66,2.47-2.47.53-.52,1.2-1.18,2-2s1.73-1.7,2.81-2.68c5.35-4.82,9.25-5.62,11.38-2.94,1.8,2.24,1.55,5-.55,8.33l.11.13a6.49,6.49,0,0,1,4.78-.61A51.17,51.17,0,0,1,140.77,94.26ZM125.33,86.1c-1.73-2.07-4.62-1.49-8.47,2.05a32.71,32.71,0,0,0-3.26,3.39q2.18,2,5.72,5.72c.69-.63,1.34-1.24,2-1.83C125.73,91.29,127.16,88.31,125.33,86.1Z"/><path class="cls-4" d="M158.87,79.1c.39.77.78,1.54,1.18,2.31a158.17,158.17,0,0,0-14.38,9.19q-2.85-4.48-6.56-9.7-3.51-4.91-6.43-8.41,7.42-5.31,15.26-9.82L149.06,65a129.08,129.08,0,0,0-11.79,7.18c1.08,1.41,2.46,3.35,4.17,5.84,3.35-2.29,6.36-4.26,9-6l1.31,2.19c-2.9,1.61-5.94,3.46-9.08,5.61,1.66,2.42,3.27,4.64,4.83,6.69C151.44,83.8,155.23,81.36,158.87,79.1Z"/><path class="cls-4" d="M195.25,66.58c-1.4.41-2.8.83-4.19,1.28-.24-.73-1.8-2.75-4.83-6q-5.94,2-11.74,4.43c-.09,4.36.12,6.9.45,7.65-1.29.56-2.57,1.14-3.85,1.74-.16-.38-.2-4.43.54-12.23s1.39-12.07,1.11-12.7q2.55-1,5.13-1.93c.21.65,3.4,3.43,9,8.72S195.06,66,195.25,66.58Zm-10.71-6.5c-5.49-5.18-8.55-7.8-8.69-8.21l-.24.09c.15.33-.44,4.33-1.14,11.93Q179.45,61.82,184.54,60.08Z"/><path class="cls-4" d="M220.31,61.33l-2.87.4c-.05-.17-2.61-2.6-8.27-6.89-6-4.48-9.77-7.12-10.82-8.36l-.22.05a67.26,67.26,0,0,1,2.08,6.76q1.38,5.57,3.07,11.17c-1.13.27-2.26.55-3.38.84-.73-3.63-1.6-7.43-2.64-11.38s-2-7.26-3.08-10.11c1.45-.38,2.92-.74,4.38-1.09.06.33,3.05,2.25,8.48,6.15,5.66,4.12,8.65,7.08,9.52,8.51l.21,0c-.66-2.71-1.15-5-1.45-6.94q-1-6.24-2-10.54c1.33-.21,2.65-.39,4-.57q.21,4.55,1,10.51T220.31,61.33Z"/><path class="cls-4" d="M250.53,48.14a11.83,11.83,0,0,1-4.22,8.37c-2.61,2.38-6,3.57-10.41,3.74-1.43.06-3.82.08-7.18.19-.09-3.53-.29-7.42-.64-11.66-.33-4-.72-7.49-1.21-10.49l2.57-.19c.63,0,1.58-.12,2.86-.23s2.12-.15,2.53-.16c5.52-.22,9.62.83,12.16,2.86A8.79,8.79,0,0,1,250.53,48.14Zm-3.88.64a7.58,7.58,0,0,0-3.08-6.38c-2.15-1.7-5.56-2.54-10.13-2.33a25.2,25.2,0,0,0-2.65.32c.29,2.64.52,5.35.69,8.15.19,3.06.47,6.17.82,9.32a22.22,22.22,0,0,0,3.23.11c3.68-.14,6.4-1,8.24-2.8A8.86,8.86,0,0,0,246.65,48.78Z"/><path class="cls-4" d="M288.46,48.89c-.66,2.52-2.41,4.06-5.19,4.74s-6.22.59-10.4-.13c-.53-.09-1-.18-1.37-.26-.42,2.45-.8,5.42-1.17,8.93-1.31-.22-2.62-.42-3.93-.61.67-3.17,1.35-7,2-11.51.57-3.87,1-7.37,1.19-10.49l3.33.5,3.05.46c1.68.26,3.11.52,4.27.75a13.53,13.53,0,0,1,6.67,3A4.49,4.49,0,0,1,288.46,48.89Zm-3.94.06c.69-2.83-1.61-4.92-7-5.94a37.34,37.34,0,0,0-4.46-.52c-.2,1.85-.62,4.71-1.28,8.58.51.11,1.14.23,1.87.36C280.21,52.58,283.79,51.94,284.52,49Z"/><path class="cls-4" d="M306.94,69.81l-1.11,2.34A165.79,165.79,0,0,0,290,66.64q1.8-5,3.65-11.11,1.73-5.76,2.72-10.2,8.55,2.49,16.87,5.8c-.38.77-.75,1.53-1.13,2.29a132.69,132.69,0,0,0-12.73-4.74q-.69,2.57-2.07,6.86c3.79,1.2,7.15,2.32,10.11,3.3-.31.8-.62,1.59-.92,2.38-3-1.27-6.32-2.48-9.86-3.6q-1.35,4.18-2.34,7.9C298.73,66.93,302.94,68.38,306.94,69.81Z"/><path class="cls-4" d="M329.76,84.23c-1.16-.71-2.32-1.41-3.5-2.08a48.68,48.68,0,0,0,.62-7.13,5.6,5.6,0,0,0-1.21-3.6A13.47,13.47,0,0,0,321.92,69c-1.12-.56-2.13-1-3-1.44q-2.4,5-3.91,8.67c-1.17-.56-2.35-1.1-3.53-1.63,1.65-3.13,3.38-6.63,5.16-10.51,1.67-3.65,3-6.89,4.09-9.75,1,.46,2,.92,3,1.4l2.46,1.13c1,.45,2.13,1,3.38,1.64,6.2,3.21,8.29,6.56,6.52,9.49-1.47,2.47-4.11,3.21-7.89,2.46a1.09,1.09,0,0,0-.08.15,6.39,6.39,0,0,1,2.16,4.22A51.87,51.87,0,0,1,329.76,84.23ZM332.09,67c1.34-2.34-.18-4.81-4.69-7.11a34.44,34.44,0,0,0-4.17-1.8c-.76,1.84-1.89,4.29-3.37,7.36l2.3,1.16C327.42,69.21,330.67,69.48,332.09,67Z"/><path class="cls-4" d="M362.23,80.1,360.46,82a128.82,128.82,0,0,0-11.37-8.89c-.93,1.66-2.35,3.86-4.27,6.58q4.4,3.08,8.48,6.16l-1.54,1.94c-2.48-2.08-5.21-4.19-8.2-6.29q-3.84,5.47-5.49,8.24c-1.06-.75-2.12-1.47-3.19-2.19q3.19-4.25,6.77-9.55,3.36-5,5.62-9A185,185,0,0,1,362.23,80.1Z"/><path class="cls-4" d="M366.89,111.77l-2,1.64A160.33,160.33,0,0,0,352.4,101c2.49-2.52,5.16-5.36,8-8.56q4-4.5,6.76-8.14a181,181,0,0,1,13.32,13.12l-2,1.59a129.38,129.38,0,0,0-9.91-10.26c-1.13,1.36-2.71,3.15-4.76,5.36,3,2.83,5.7,5.42,8.06,7.71L370,103.61q-3.45-3.89-7.71-7.87c-2,2.16-3.8,4.22-5.44,6.2C360.43,105.26,363.76,108.55,366.89,111.77Z"/><path class="cls-4" d="M383.24,132.89,381,134a33.19,33.19,0,0,1-3.95-4.72c-3-4.25-4.53-7.91-4.53-11.32a10.25,10.25,0,0,1,3.44-8.17c2.45-2.12,5.58-2.81,9.42-1.82s7.49,3.77,10.72,8.39a24.44,24.44,0,0,1,2.39,4.34l-2.65.91a23.22,23.22,0,0,0-2.46-4.67c-2.38-3.35-4.95-5.28-7.56-5.84a7.57,7.57,0,0,0-6.76,1.58,8.36,8.36,0,0,0-2.93,6.72c-.05,2.87,1.06,5.81,3.29,9A38.85,38.85,0,0,0,383.24,132.89Z"/><path class="cls-4" d="M413.73,148.21l-2.25.86c-1.38-3.31-2.92-6.64-4.65-10-1.95,1-4.42,2.26-7.39,3.83-3.28,1.72-6.68,3.61-10.22,5.64q-1-1.92-2-3.81c3.48-1.73,6.93-3.53,10.34-5.43q4.35-2.42,7.19-4.18c-1.25-2.28-3.11-5.42-5.68-9.27l2.13-1.2A197.5,197.5,0,0,1,413.73,148.21Z"/><path class="cls-4" d="M167,434.43c-1.56,3.89-5.59,4.62-11.92,1.68a24.85,24.85,0,0,1-5.77-3.64c.62-.68,1.23-1.38,1.84-2.07a20.46,20.46,0,0,0,5.32,3.68c4.13,1.91,6.65,1.76,7.49-.25a3.44,3.44,0,0,0-.45-3.28,30,30,0,0,0-3.23-3.75,17.26,17.26,0,0,1-3.29-4.4,4.94,4.94,0,0,1,.1-4.45,5.2,5.2,0,0,1,3.54-2.83,9.19,9.19,0,0,1,6.07.92,23.42,23.42,0,0,1,5.15,2.82l-1.44,2.33a23.89,23.89,0,0,0-5.06-3.11c-2.83-1.29-4.66-1.12-5.53.64a2.8,2.8,0,0,0,.21,2.74,24.26,24.26,0,0,0,2.86,3.32,23.76,23.76,0,0,1,3.64,4.47A5.72,5.72,0,0,1,167,434.43Z"/><path class="cls-4" d="M174.39,443.38c-1.2-.42-2.39-.85-3.59-1.29q2.2-5.08,4.33-10.85t3.41-10c1.06.4,2.12.78,3.18,1.15q-1.77,4.32-3.73,9.87C176.63,436.16,175.42,439.86,174.39,443.38Z"/><path class="cls-4" d="M201.51,450.81l-2.72-.57c.06-.19-1.57-3.3-4.37-9.4-2.89-6.42-4.15-10.43-4.31-12l-.18-.05c-.55,2.69-1.09,5-1.64,6.86q-1.59,5.52-2.92,11.21c-1.08-.31-2.15-.63-3.22-1,1.3-3.47,2.53-7.16,3.72-11.07s2.08-7.24,2.77-10.18l3.27,1c-.07.31.87,3.3,3.27,8.94,2.53,5.92,4.13,9.66,4.35,11.29l.2,0c.36-2.76.76-5.08,1.17-7q1.33-6.18,2-10.53l3,.62q-1.2,4.37-2.39,10.28T201.51,450.81Z"/><path class="cls-4" d="M227,451.54c-.14.84-.29,1.68-.44,2.52a19.1,19.1,0,0,1-5.33.17c-4.53-.46-7.79-2-9.7-4.46a10.23,10.23,0,0,1-2-8.28,11.89,11.89,0,0,1,4.82-7.73,13.08,13.08,0,0,1,9.58-2.37,14.08,14.08,0,0,1,3.29.75l-.72,2.67a14,14,0,0,0-3.58-.95c-2.86-.29-5.13.27-6.86,1.76a9.3,9.3,0,0,0-3.17,5.87,8.45,8.45,0,0,0,1.8,6.79c1.59,2,4.07,3.25,7.38,3.57A19.39,19.39,0,0,0,227,451.54Z"/><path class="cls-4" d="M248.21,452.09c0,.86,0,1.72,0,2.58q-7.95.25-15.91-.1.51-5.28.79-11.66.25-6,.22-10.55c4.42.2,8.86.24,13.29.12,0,.85-.05,1.7-.07,2.55-3.27,0-6.74-.11-10.39-.22q0,2.65-.1,7.15a87.47,87.47,0,0,0,8.77-.15l0,2.54c-2.77-.06-5.73-.11-8.87-.2q-.13,4.38-.07,8.23A118.18,118.18,0,0,0,248.21,452.09Z"/><path class="cls-4" d="M269.78,452.8l-3.35.44q-.23-3.6-.71-7.45c-.37-3-.72-5.15-1-6.54q-2,1.22-4,2.4l-1-1.39q3.09-2.56,6-5.24l1.53-.21q.6,5.49,1.3,10.61Q269.06,449,269.78,452.8Z"/><path class="cls-4" d="M291.64,439.81c2.57,9.33-.86,15.72-10.57,18.12q-.49-.94-1-1.89c7.2-1.81,10.13-6.32,8.89-13l-.19.05c-.86,1.89-2.7,3.17-5.49,3.77a6.8,6.8,0,0,1-5.69-1,7,7,0,0,1-2.77-4.56,7.81,7.81,0,0,1,1.15-5.66,8.6,8.6,0,0,1,11.45-2.33C289.4,434.56,290.81,436.7,291.64,439.81ZM288.52,441a9.42,9.42,0,0,0-2.94-5.33,4.73,4.73,0,0,0-4.05-1.1,4.31,4.31,0,0,0-3,2.08,5,5,0,0,0-.56,3.57,5.27,5.27,0,0,0,2.22,3.42,5.48,5.48,0,0,0,4.53.7A4.94,4.94,0,0,0,288.52,441Z"/><path class="cls-4" d="M312,439.6c.16.8.31,1.59.47,2.39q-6.82,2.55-13.78,4.58c-.08-.77-.17-1.55-.26-2.32a33,33,0,0,0,5.24-7,6.37,6.37,0,0,0,.38-5.09c-.8-2.27-2.83-2.82-6.12-1.77a19.74,19.74,0,0,0-3.31,1.29l-.33-2.41a16.4,16.4,0,0,1,3.28-1.36c2.56-.82,4.61-1,6.19-.46a4.62,4.62,0,0,1,3.13,2.84,7.56,7.56,0,0,1-.54,6.36,29.35,29.35,0,0,1-4.84,6.6c0,.05,0,.09,0,.14Q306.87,441.73,312,439.6Z"/><path class="cls-4" d="M331.33,427.9c.29.85.57,1.71.85,2.57-1,.53-2.07,1-3.11,1.54.93,1.91,2.2,4.35,3.84,7.33l-3.21,1.53c-1.15-2.71-2.26-5.23-3.35-7.56q-5.12,2.38-10.33,4.48l-1.18-1.85c-.13-.27.75-3,2.27-8.2a53.48,53.48,0,0,0,2-8c1.17-.54,2.33-1.09,3.49-1.65q1.49,3.57,5.43,11.69A36.05,36.05,0,0,0,331.33,427.9ZM321,421.49l-.14.07c.12.27-.31,2.44-1.5,6.51s-1.89,6.18-1.82,6.35l.06.13c2.12-.89,4.68-2,7.63-3.5Q323.07,426.23,321,421.49Z"/></g></g></svg>