<svg xmlns="http://www.w3.org/2000/svg" viewBox="0 0 349 349"><defs><style>.cls-1{fill:none;stroke:#de5b9e;stroke-miterlimit:10;stroke-width:29px;}.cls-2{fill:#005ea6;}.cls-3{fill:#de5b9e;}</style></defs><g id="Layer_2" data-name="Layer 2"><g id="Layer_1-2" data-name="Layer 1"><circle class="cls-1" cx="174.5" cy="174.5" r="160"/><path class="cls-2" d="M84.5,112.5q11,57.5,22,115l13-1q-2-59.5-4-119Z"/><path class="cls-3" d="M193,102.57q-.67,62.76-1.33,125.52l13,1.36q9.91-63.21,19.81-126.4Z"/><path class="cls-3" d="M121.5,101.5v28c17-2.85,29.63,7.55,30,16,.33,7.7-9.34,17.73-24,19q.5,7.5,1,15c14.42.38,25.17,8.94,26,17,1,9.43-11.16,22.7-30,22v10c37,0,58-10,58-39,0-12.8-20.22-21-25-23,6.93-3.39,20.31-10.9,21-22C180.5,112.5,161.5,103.5,121.5,101.5Z"/><path class="cls-2" d="M224.5,107.5q-1,15-2,30c10.61.67,18.85,7.95,20,16,1.47,10.27-9,18-24,22-1,5-1,10-2,15l24,38,14-3c-7-13-7-28-14-41,25.27-4.43,34.2-23.61,32-42-2.27-19-23.38-30.91-38-34a46.86,46.86,0,0,0-9-1"/></g></g></svg>