<svg xmlns="http://www.w3.org/2000/svg" viewBox="0 0 492 492"><defs><style>.cls-1{fill:#f5eadd;}.cls-2{fill:#ed8e4a;}.cls-3{font-size:99px;letter-spacing:0.01em;}.cls-3,.cls-5{fill:red;font-family:TwCenMT-CondensedExtraBold, Tw Cen MT Condensed Extra Bold;font-weight:800;}.cls-4{letter-spacing:0.01em;}.cls-5{font-size:154px;letter-spacing:0.02em;}</style></defs><g id="Layer_2" data-name="Layer 2"><g id="Layer_1-2" data-name="Layer 1"><circle class="cls-1" cx="246" cy="246" r="246"/><path class="cls-2" d="M238,70c65.59-1.44,133.2,19.39,162,77,8,16,.64,22.14-3.07,22.25-49.29,1.47-101.61-.59-152.93-.25-52,.34-106.07.85-156,0-5.11-.09-10-10-3-24C112.88,89.24,175.5,71.37,238,70Z"/><path class="cls-2" d="M246,364c48.1-.45,98.21-.76,146.32-1,3.92,0,11.68,5,7.68,13-21.61,43.23-81.8,44.47-154,46-75.07,1.59-142.82-4.61-161-44-6-13,0-13.12,4-13.18C139.39,364.1,195.67,364.47,246,364Z"/><text class="cls-3" transform="translate(81.25 245.6)">B<tspan class="cls-4" x="50.98" y="0">URGER</tspan></text><text class="cls-5" transform="translate(82.25 353.6)">KING</text></g></g></svg>