<svg xmlns="http://www.w3.org/2000/svg" xmlns:xlink="http://www.w3.org/1999/xlink" viewBox="0 0 492 492"><defs><style>.cls-1{fill:url(#radial-gradient);}.cls-2{fill:red;}.cls-3{fill:url(#radial-gradient-2);}.cls-4{fill:url(#radial-gradient-3);}.cls-5{fill:url(#radial-gradient-4);}.cls-6{fill:url(#radial-gradient-5);}.cls-7{fill:url(#radial-gradient-6);}</style><radialGradient id="radial-gradient" cx="246" cy="246" r="246" gradientUnits="userSpaceOnUse"><stop offset="0" stop-color="#f2f2f2"/><stop offset="0.83" stop-color="#e9e9e9"/><stop offset="1" stop-color="#e6e6e6"/></radialGradient><radialGradient id="radial-gradient-2" cx="118" cy="256.65" r="32.85" xlink:href="#radial-gradient"/><radialGradient id="radial-gradient-3" cx="179" cy="256.5" r="32.37" xlink:href="#radial-gradient"/><radialGradient id="radial-gradient-4" cx="246.13" cy="257.09" r="33.16" xlink:href="#radial-gradient"/><radialGradient id="radial-gradient-5" cx="318.37" cy="255.5" r="26.96" xlink:href="#radial-gradient"/><radialGradient id="radial-gradient-6" cx="380.02" cy="255.5" r="28.24" xlink:href="#radial-gradient"/></defs><g id="Layer_2" data-name="Layer 2"><g id="Layer_1-2" data-name="Layer 1"><circle class="cls-1" cx="246" cy="246" r="246"/><path class="cls-2" d="M244.58,174.08l-204.8,38.4a2.25,2.25,0,0,0-1.64,3.11q24.63,56,49.27,112.07a2.25,2.25,0,0,0,2,1.34H400.55a2.27,2.27,0,0,0,2.05-1.32q25.11-55.55,50.23-111.09a2.25,2.25,0,0,0-1.63-3.13L245.42,174.08A2.37,2.37,0,0,0,244.58,174.08Z"/><path class="cls-3" d="M83,228q-.5,6.5-1,13h9q2,22.5,4,45h18q1-9.5,2-19c29,1,39-13.23,39-19C154,227,134,226,83,228Zm33,25q1-5,2-10c1.29.22,13,2.31,13,5C131,250,124.74,251.86,116,253Z"/><path class="cls-4" d="M198,227l-27,1-27,57,18,1,5-7h26l2,5,19,1Zm-23,36c1.65-8.22,4.09-14.13,6-14s3.54,6.41,4,15Z"/><path class="cls-5" d="M282,245c0-9-11.51-19.28-28-18l-40.81.93a3,3,0,0,0-2.92,3.25l.54,6.55a2.48,2.48,0,0,0,2.47,2.27H218q1.51,23.17,3,46.36l18.6.93L243,267l16,18h23q-5.5-12.5-11-25C271.81,259.53,282,253.5,282,245Zm-37,7q1-5.5,2-11c5.65.79,9.91,2.93,10,5C257.1,248.24,252.35,251.16,245,252Z"/><path class="cls-6" d="M293,228.21,295,282.87a1.17,1.17,0,0,0,1.17,1.13H339a1.17,1.17,0,0,0,1.15-.95q1.76-9.19,3.5-18.38a1.17,1.17,0,0,0-1.36-1.37l-24.76,4.42a1.18,1.18,0,0,1-1.37-1.3l4.65-38.11a1.18,1.18,0,0,0-1.16-1.31H294.21A1.17,1.17,0,0,0,293,228.21Z"/><path class="cls-7" d="M352,229.08,353,284h46l3-19-23.58,3.93L377,263l19-6-2.06-10L374,249v-9l32,1q1-7,2-14H354.08A2,2,0,0,0,352,229.08Z"/></g></g></svg>