<svg xmlns="http://www.w3.org/2000/svg" xmlns:xlink="http://www.w3.org/1999/xlink" viewBox="0 0 492 492"><defs><style>.cls-1{fill:url(#radial-gradient);}.cls-2{fill:#ed1c24;}.cls-3{font-size:137.7px;fill:#fff;font-family:ForteMT, Forte;}</style><radialGradient id="radial-gradient" cx="246" cy="246" r="246" gradientUnits="userSpaceOnUse"><stop offset="0"/><stop offset="0.32" stop-color="#030303"/><stop offset="0.57" stop-color="#0d0d0d"/><stop offset="0.8" stop-color="#1d1d1d"/><stop offset="1" stop-color="#333"/></radialGradient></defs><g id="Layer_2" data-name="Layer 2"><g id="Layer_1-2" data-name="Layer 1"><circle class="cls-1" cx="246" cy="246" r="246"/><path class="cls-2" d="M243.41,76.08Q215.63,83.72,190,91.92a8.85,8.85,0,0,0-5.1,4.22l-20,36.75A388.75,388.75,0,0,0,68.58,195a3.65,3.65,0,0,0,3.18,6.3c48.68-10.54,100.32-20.22,154.73-28.52,63.71-9.72,124.45-16.52,181.72-21.09A8.66,8.66,0,0,0,412,135.63a246.2,246.2,0,0,0-94.24-33,8.08,8.08,0,0,1-6.53-5.24L301.62,71a10.58,10.58,0,0,0-12.39-6.68Q266.9,69.66,243.41,76.08Z"/><text class="cls-3" transform="translate(96.87 307.02) rotate(-7.85)">Pizza</text><text class="cls-3" transform="translate(152.36 407.83) rotate(-7.85)">Hut</text></g></g></svg>