<svg xmlns="http://www.w3.org/2000/svg" xmlns:xlink="http://www.w3.org/1999/xlink" viewBox="0 0 492 492"><defs><style>.cls-1{fill:url(#radial-gradient);}.cls-2{fill:#fff;}</style><radialGradient id="radial-gradient" cx="246" cy="246" r="246" gradientUnits="userSpaceOnUse"><stop offset="0" stop-color="#412124"/><stop offset="1" stop-color="#572d24"/></radialGradient></defs><g id="Layer_2" data-name="Layer 2"><g id="Layer_1-2" data-name="Layer 1"><circle class="cls-1" cx="246" cy="246" r="246"/><path class="cls-2" d="M42,196q-.49,16-1,32H71v73h41q-.5-37-1-74h28V196Z"/><path class="cls-2" d="M169,196,130,299l40,1,20-60,21,59h41L213,196Z"/><path class="cls-2" d="M242,197v31h29v73h40q-.5-37-1-74h29q-.5-15-1-30Z"/><path class="cls-2" d="M371,196,328,299h42l21-60q10,30,20,60h42q-20-52-40-104Z"/></g></g></svg>