<svg xmlns="http://www.w3.org/2000/svg" xmlns:xlink="http://www.w3.org/1999/xlink" viewBox="0 0 492 492"><defs><style>.cls-1{fill:url(#radial-gradient);}.cls-2{fill:red;}.cls-3{fill:#fcf729;}</style><radialGradient id="radial-gradient" cx="246" cy="246" r="246" gradientUnits="userSpaceOnUse"><stop offset="0" stop-color="#fffc01"/><stop offset="0.12" stop-color="#fffc0a"/><stop offset="0.32" stop-color="#fffb24"/><stop offset="0.57" stop-color="#fff94e"/><stop offset="0.86" stop-color="#fff787"/><stop offset="1" stop-color="#fff6a4"/></radialGradient></defs><g id="Layer_2" data-name="Layer 2"><g id="Layer_1-2" data-name="Layer 1"><circle class="cls-1" cx="246" cy="246" r="246"/><path class="cls-2" d="M249,150c-95.3,3.19-203,37-202,92,.06,3.27-1.71,10.7,1.23,19.24C58.71,291.77,104,303,168,314c21.71,3.73,51.44,19.06,87,40a279.89,279.89,0,0,1,56-35c62.69-29.42,106-20.57,131.49-56.47C447.89,254.94,456,242.71,455,228,451,167,343.69,146.83,249,150Z"/><path class="cls-3" d="M103.5,212.5q.25,27.75.5,55.5h16V233l16,33h15q7-17,14-34,1,17,2,34h15q-.5-28-1-56l-24.5.5-12,32-19-30Z"/><path class="cls-3" d="M248.5,263.5l-1.77-35.31a15.24,15.24,0,0,0-6.14-11.62l-.09-.07c-7-5-36-5-43-2-9.94,4.26-10.11,13.4-11,16h16a1.23,1.23,0,0,1,.08-.12,17.58,17.58,0,0,1,11.92-7.88c8-1,13.22,2.6,17,9-9.82,1.28-46-1-46,17,0,15,14.42,17.05,29,17a34.82,34.82,0,0,0,19-6v4Zm-31-9c-6.26-.14-13.89-3.35-14-7-.12-3.92,8.44-8.17,16-8,6.26.14,13.89,3.35,14,7C233.62,250.42,225.06,254.67,217.5,254.5Z"/><path class="cls-3" d="M296.5,212.5v4c-11.35-7.35-31-4-34-2-5.14,3.43-12,10.49-11,18,2,15,18.93,17.23,32,16a34.41,34.41,0,0,0,13-4,12.22,12.22,0,0,1,0,7c-1.95,6.11-9.34,10-16,9-7-1.07-10.5-7.11-11-8h-18c4,10,12.08,17.2,32,17a36.54,36.54,0,0,0,16.21-4A23.28,23.28,0,0,0,312.5,244.7V212.5Zm-15,27c-6.16-.2-13.82-4.05-14-9s7.53-9.57,14-10c7.27-.49,15.84,4,16,9S289,239.75,281.5,239.5Z"/><path class="cls-3" d="M364,211v4c-11.35-7.35-31-4-34-2-5.14,3.43-12,10.49-11,18,2,15,18.93,17.23,32,16a34.41,34.41,0,0,0,13-4,12.22,12.22,0,0,1,0,7c-1.95,6.11-9.34,10-16,9-7-1.07-10.5-7.11-11-8H319c4,10,12.08,17.2,32,17a36.54,36.54,0,0,0,16.21-4A23.28,23.28,0,0,0,380,243.2V211Zm-15,27c-6.16-.2-13.82-4.05-14-9s7.53-9.57,14-10c7.27-.49,15.84,4,16,9S356.54,238.25,349,238Z"/><path class="cls-3" d="M382.5,209.5q.5,23,1,46h16q-.5-23-1-46Z"/><path class="cls-3" d="M380.5,202.5c.11,2.27,5.49,4.3,10,4,4.23-.28,9.12-2.72,9-5-.11-2.13-4.58-3.79-8-4C386.26,197.18,380.38,200.08,380.5,202.5Z"/></g></g></svg>