<svg xmlns="http://www.w3.org/2000/svg" xmlns:xlink="http://www.w3.org/1999/xlink" viewBox="0 0 492 492"><defs><style>.cls-1{fill:url(#radial-gradient);}.cls-2{fill:#fff;}</style><radialGradient id="radial-gradient" cx="246" cy="246" r="246" gradientUnits="userSpaceOnUse"><stop offset="0" stop-color="#ff5a5a"/><stop offset="0.26" stop-color="#fd494c"/><stop offset="0.76" stop-color="#f81b27"/><stop offset="1" stop-color="#f60414"/></radialGradient></defs><g id="Layer_2" data-name="Layer 2"><g id="Layer_1-2" data-name="Layer 1"><circle class="cls-1" cx="246" cy="246" r="246"/><path class="cls-2" d="M76,196q-1,56.51-2,113l27-6V271l27,31,20-18-26.5-25.5,26-35-22-10-25,34v-61Z"/><path class="cls-2" d="M153.5,217.5q-.5,38.5-1,77l26-2v-77Z"/><path class="cls-2" d="M207.5,193.5c-16.38,11-20.61,20.69-21,28-.83,15.72,15.89,24.91,13,39-1.76,8.58-9.84,14.33-17,18l18,17c19.33-11.56,24.44-22,25-30,1.22-17.17-18.2-29.8-13-44,2.05-5.6,7-9,11-11Z"/><path class="cls-2" d="M251.5,178.5c-16.32,6.67-21.92,14.77-24,21-7.5,22.5,22.78,45.33,14,65-3.51,7.86-11.77,11.87-18,14l18,19c18.66-8.66,24.21-18.2,26-25,5.89-22.42-21.73-43.38-13-63,2.86-6.42,8.45-10.1,12-12Z"/><path class="cls-2" d="M342.5,293.5q-.5-30-1-60c-.79-3.67-2.89-10.69-9-16-6.83-5.94-14.87-6.44-24-7a75.61,75.61,0,0,0-26,3l-3,16a35.52,35.52,0,0,1,20-3c4.12.63,10.51,1.6,15,7a18.92,18.92,0,0,1,4,9c-2.11-.92-14.88-6.27-28,0-8.58,4.1-19.88,14.38-18,28,1.82,13.15,14.91,22,27,22,9.18,0,15.75-5.08,18-7v8Zm-34-17c-4.4.44-10.43-1.4-12-6s2.3-9.21,3-10c6.18-7,17.52-4.13,18-4v15A13.82,13.82,0,0,1,308.5,276.5Z"/><path class="cls-2" d="M348.5,218.5v76l24,3q.5-26,1-52a10.89,10.89,0,0,1,20,4q.5,26,1,52l24,4v-56a26.15,26.15,0,0,0-45-19q-.5-5.5-1-11Z"/></g></g></svg>