<svg xmlns="http://www.w3.org/2000/svg" xmlns:xlink="http://www.w3.org/1999/xlink" viewBox="0 0 492 492"><defs><style>.cls-1{fill:url(#radial-gradient);}.cls-2{fill:red;}.cls-3{fill:#fff;}</style><radialGradient id="radial-gradient" cx="246" cy="246" r="246" gradientUnits="userSpaceOnUse"><stop offset="0" stop-color="#062f62"/><stop offset="0.43" stop-color="#063064"/><stop offset="0.61" stop-color="#07356b"/><stop offset="0.73" stop-color="#093e77"/><stop offset="0.84" stop-color="#0c4989"/><stop offset="0.93" stop-color="#0f599f"/><stop offset="1" stop-color="#1369b7"/></radialGradient></defs><g id="Layer_2" data-name="Layer 2"><g id="Layer_1-2" data-name="Layer 1"><circle class="cls-1" cx="246" cy="246" r="246"/><path class="cls-2" d="M244.5,383.14c-3.64,0-7.34-.05-11-.13a9.67,9.67,0,0,1-3.32-.66L181,363c-10.47.3-21.17.62-31.76,1q-12.18.39-24.29.83h-.36a9.67,9.67,0,0,1-9.45-11.65l24-114.36a9.68,9.68,0,0,1,8.21-7.6c3.73-.49,7.52-1,11.24-1.64,7.07-1.15,13.17-2.13,14.72-3.13,2-1.26,2.42-2.4,3.61-5.82A41.09,41.09,0,0,1,182.63,209a28.82,28.82,0,0,1,13.1-10.39,18.91,18.91,0,0,0,8.13-5.9c3.46-4.23,3.88-7.21,4.46-11.33.68-4.81,1.53-10.79,7.66-17.81a56.71,56.71,0,0,1,6.62-6.29c3.28-2.77,5.65-4.77,7.32-9a22.19,22.19,0,0,0,1.5-6.5l-16.22-32a9.64,9.64,0,0,1,4-12.85c5-2.77,12.9-6.08,21.79-6.08a34.2,34.2,0,0,1,9.77,1.41c14.19,4.25,20.38,16.39,29,33.18l.17.34c4.39,8.6,8.93,17.49,8.66,29.86a51,51,0,0,1-5.24,21.3,34.49,34.49,0,0,1-1,15.33c-1.55,5-3.85,8.16-7.34,12.89-1,1.38-2.18,2.95-3.51,4.82-.8,1.13-1.58,2.25-2.35,3.38l82.36-10.93a11,11,0,0,1,1.28-.08,9.65,9.65,0,0,1,8.95,6L377,245.81A9.67,9.67,0,0,1,372.59,258l7.07,21.92A9.69,9.69,0,0,1,374,291.84l-1.36.55,8.6,22.94a9.68,9.68,0,0,1-6,12.57l-2.74.91,8,24.7a9.69,9.69,0,0,1-6.67,12.31A493.35,493.35,0,0,1,290.56,381C275.32,382.41,259.82,383.14,244.5,383.14Z"/><path class="cls-3" d="M241,96.84A27.94,27.94,0,0,1,249,98c11.81,3.54,17.28,14.4,25.5,30.5,4.46,8.75,8.23,16.36,8,27a45.71,45.71,0,0,1-4.95,19.44,3.6,3.6,0,0,0-.33,2.24,28.88,28.88,0,0,1-.72,13.32c-1.63,5.31-4.29,8-10,16-1.41,2-3.23,4.62-5.32,7.83a3.68,3.68,0,0,0,3.05,5.68,2.92,2.92,0,0,0,.51,0l87.45-11.6a4,4,0,0,1,.49,0,3.67,3.67,0,0,1,3.39,2.28l15.33,37.46a3.67,3.67,0,0,1-2.51,4.95l-.08,0a3.66,3.66,0,0,0-2.6,4.69l7.74,24a3.67,3.67,0,0,1-2.13,4.53l-3.49,1.4a3.66,3.66,0,0,0-2.07,4.69q4.71,12.54,9.4,25.07a3.67,3.67,0,0,1-2.27,4.77l-4.94,1.65a3.67,3.67,0,0,0-2.33,4.61l8.7,26.89a3.67,3.67,0,0,1-2.54,4.68A487.05,487.05,0,0,1,290,375c-16.13,1.52-31.35,2.14-45.51,2.14-3.68,0-7.3-.05-10.84-.13a3.41,3.41,0,0,1-1.26-.25L182.7,357.27a3.88,3.88,0,0,0-1.34-.25h-.11q-16.06.45-32.25,1-12.19.39-24.32.83h-.14a3.66,3.66,0,0,1-3.58-4.42l24-114.35a3.67,3.67,0,0,1,3.12-2.89c3.07-.4,7-.95,11.42-1.67,9.6-1.55,14.46-2.37,17-4,6.81-4.38,4.6-10.13,11-19,7.42-10.29,13.18-6.44,21-16,9.21-11.25,2.25-17.82,12-29,5.67-6.51,11.55-8.32,15-17a28.72,28.72,0,0,0,2-9,3.65,3.65,0,0,0-.39-1.86q-8.26-16.29-16.52-32.59a3.67,3.67,0,0,1,1.5-4.88c4.18-2.29,11.1-5.33,18.9-5.33m0-12c-10.16,0-19,3.71-24.68,6.82a15.62,15.62,0,0,0-6.43,20.82l3.84,7.57,11.56,22.81a16.19,16.19,0,0,1-.89,3.21c-1.07,2.68-2.28,3.79-5.62,6.61a63.64,63.64,0,0,0-7.28,6.93c-7.29,8.37-8.32,15.62-9.07,20.91-.53,3.74-.77,5.45-3.17,8.38-2,2.44-3.23,3-6,4.23a34.36,34.36,0,0,0-15.48,12.35,46.72,46.72,0,0,0-6.57,13.18,25,25,0,0,1-1,2.6c-1.79.64-7.53,1.57-12.63,2.39-3.67.6-7.39,1.14-11.06,1.62a15.7,15.7,0,0,0-13.3,12.32L109.22,352a15.66,15.66,0,0,0,15.32,18.88h.56c8.07-.29,16.24-.56,24.29-.83,10.13-.33,20.38-.64,30.51-.93l2.31.91,45.8,18a15.49,15.49,0,0,0,5.38,1.08c3.68.08,7.42.13,11.1.13,15.52,0,31.2-.74,46.63-2.19a500,500,0,0,0,84.31-15.34,15.68,15.68,0,0,0,10.81-19.95L381.16,336,380,332.33a15.65,15.65,0,0,0,6.92-19.11l-3.76-10-3-8a15.73,15.73,0,0,0,5.23-17.12l-4.17-12.93-1.64-5.08a15.67,15.67,0,0,0,2.94-16.52l-15.32-37.45a15.61,15.61,0,0,0-14.5-9.74,16,16,0,0,0-2.07.14l-24.26,3.21L282,205.58A38,38,0,0,0,288,194a39.93,39.93,0,0,0,1.46-16.13,56.71,56.71,0,0,0,5.07-22.13c.3-13.88-4.81-23.88-9.31-32.71l-.17-.34c-8.9-17.44-15.93-31.22-32.58-36.21A40.11,40.11,0,0,0,241,84.84Z"/><path class="cls-3" d="M148,261l-8,12,16-2-13,52,20-12,9-42,11-1,3-12Z"/><path class="cls-3" d="M189.5,251.5l-13,52,16-3,3-17a11.26,11.26,0,0,1,3-5c1.91-1.83,5.43-3.89,7-3,1.8,1,1.83,6.37-4,23l15-1q2.5-13,5-26c.07-.8.43-6-3-9-3.94-3.42-11.65-2.81-17,3l3-17Z"/><path class="cls-3" d="M227.5,258.5q-2.5,12-5,24c-.21,1.08-1.16,6.54,2,10,3.87,4.23,12.87,4.37,20-2v3l15-2q4-18.5,8-37l-16,1c-.19,2.83-1.71,22.72-9,25a2.55,2.55,0,0,1-2,0c-3.15-1.71-.13-13.27,3-23Z"/><path class="cls-3" d="M271.5,252.5q-3.5,18-7,36l15-1a59.87,59.87,0,0,1,2-11c2-7.17,5.75-15.35,7-15,.91.25.91,5.09-3,25l16-3a52.08,52.08,0,0,1,2-11c2-6.81,5.76-14.37,7-14,.89.27.89,4.7-3,23l15-1a60,60,0,0,0,4-16c.77-7.19,1.71-15.91-3-19-3.42-2.25-8.36-.56-10,0a16.55,16.55,0,0,0-8,6,12.62,12.62,0,0,0-8-4c-6.52-.56-10.68,4.59-11,5v-3Z"/><path class="cls-3" d="M362.5,239.5c-20-3-31,8-32,13-2.95,14.74,13.88,9.31,13,13-.58,2.44-7.22,2.92-12,3l-7,11c18.65,2.74,32.59-5.94,34-13,3-15-14.46-10-13-14,1-2.62,8-2.43,13-2Q360.5,245,362.5,239.5Z"/><path class="cls-3" d="M214.5,301.5q-3.36,13.88-6.73,27.74a30.61,30.61,0,0,0-.09,14.43c2.34,9.47,7.62,8.83,14.82,8.83,12.05,0,26.85-6,31-23q4-17.5,8-35l-17,2q-3.5,15-7,30c-2.49,7.87-6.37,12.51-9,12-2.83-.55-3.85-7-4-8q3.5-15.5,7-31Z"/><path class="cls-3" d="M302.5,291.5c-4.64-4-13.36-3.53-21,2v-2l-16,2q-8,33.5-16,67l20-14q2-9.5,4-19a16,16,0,0,0,9,4c10.87.82,21-12.19,23-24C306.11,303.93,307.49,295.82,302.5,291.5Zm-13,19c-1.38,4.6-6,9.07-9,8-2.79-1-4.05-6.88-2-11s7.48-6.7,10-5C290.66,304,290.19,308.22,289.5,310.5Z"/></g></g></svg>