<svg xmlns="http://www.w3.org/2000/svg" xmlns:xlink="http://www.w3.org/1999/xlink" viewBox="0 0 492 492"><defs><style>.cls-1{fill:url(#radial-gradient);}.cls-2{fill:red;}</style><radialGradient id="radial-gradient" cx="246" cy="246" r="246" gradientUnits="userSpaceOnUse"><stop offset="0" stop-color="#f2f2f2"/><stop offset="0.83" stop-color="#e9e9e9"/><stop offset="1" stop-color="#e6e6e6"/></radialGradient></defs><g id="Layer_2" data-name="Layer 2"><g id="Layer_1-2" data-name="Layer 1"><circle class="cls-1" cx="246" cy="246" r="246"/><path class="cls-2" d="M111,221q.5,61.5,1,123l26,10q.5-26,1-52l41,55,34,1-56-74,57-120-38,14-34.5,77.5q-1-22-2-44Z"/><path class="cls-2" d="M184.5,263.5l18-9q.5,25.5,1,51l-20,4Q184,286.51,184.5,263.5Z"/><path class="cls-2" d="M229.5,215.5l-22,31v5h7v38c.43.91,4.78,9.86,13,11,8.79,1.22,19.2-6.86,21-20h-4a5.63,5.63,0,0,1-11-1v-34h14v-16h-12v-14Z"/><path class="cls-2" d="M385,179l-22,31v5h7v38c.43.91,4.78,9.86,13,11,8.79,1.22,19.2-6.86,21-20h-4a5.63,5.63,0,0,1-11-1V209h14V193H391V179Z"/><path class="cls-2" d="M252.5,153.5v199l27-8q.5-32.5,1-65l39,50,22-15-46-61q22-50,44-100l-30-4-28,73-3-73Z"/><path class="cls-2" d="M363,253.25l-4.56-.46a2.44,2.44,0,0,1-2.12-3,66.18,66.18,0,0,0,1.23-29.24c-2.3-12-6.68-15.16-8-16-4.51-2.88-9.51-2.29-12-2-9.19,1.08-18.79,7.77-22,18l-.06.19a6.09,6.09,0,0,0,9.46,6.6c2.1-1.57,4-2.81,5.6-3.79,2.88-1.76,5.29-2.95,7-2,2.35,1.3,2.07,5.9,2,7-.88,14.31-25.38,19-26,32-.36,7.42,7.14,16.57,16,17,5.38.26,10.73-2.72,14.47-7.69a2.44,2.44,0,0,1,3.49-.4,8.32,8.32,0,0,0,5,2.09c5.1.11,10.82-5.84,12.62-15.41A2.43,2.43,0,0,0,363,253.25ZM339.5,261.5c-3.51.37-6.79-.76-8-3-2.45-4.53,4.53-11.8,7-11C341.31,248.41,339.69,260.17,339.5,261.5Z"/><path class="cls-2" d="M189,232c-4.72,3.64-6.46,11.45-3,15,2.53,2.6,7.13,2.2,10,1,6.38-2.68,10.19-11.84,7-16C200.42,228.64,193.33,228.66,189,232Z"/><path class="cls-2" d="M220.11,153.39a240,240,0,0,0-53.37,22.17A273.35,273.35,0,0,0,142.31,191a278.67,278.67,0,0,0-22.66,17.78,251.81,251.81,0,0,0-20.53,20c-3.2,3.52-6.28,7.15-9.19,10.89s-5.73,7.55-8.29,11.5a102,102,0,0,0-12.15,25.12,62.86,62.86,0,0,0-2.57,13.42,44.1,44.1,0,0,0,1,13.38A39.32,39.32,0,0,0,70,309.44a41.24,41.24,0,0,0,3,6.05,57.49,57.49,0,0,0,8.51,10.8,93.12,93.12,0,0,0,22.9,16.36A162.38,162.38,0,0,0,131,353.5,217.78,217.78,0,0,0,159,360.13a265.64,265.64,0,0,0,57.59,3.18q7.22-.37,14.39-1.13c4.79-.53,9.55-1.21,14.29-2a230.46,230.46,0,0,0,28-6.54,277,277,0,0,0,52.75-22.57,296.07,296.07,0,0,0,47.27-32.29c14.52-12.31,27.89-26.16,38.17-41.91a103.15,103.15,0,0,0,12.15-24.94,59.83,59.83,0,0,0,2.58-13.25,43.5,43.5,0,0,0-1-13.11c-1.95-8.49-7-16.18-13.58-22.47a77,77,0,0,0-10.75-8.62,116,116,0,0,0-12.07-7.1c-16.82-8.45-35.31-13.87-54.11-17.45a279.77,279.77,0,0,0-57.41-4.59,260.45,260.45,0,0,0-28.84,2.31A240.38,240.38,0,0,0,220.11,153.39Zm-.22-.78a262.23,262.23,0,0,1,28.41-6.15c9.57-1.59,19.23-2.6,28.92-3.31q7.26-.5,14.56-.65c4.86-.11,9.73-.13,14.6,0a285.2,285.2,0,0,1,29.17,2.22,219.82,219.82,0,0,1,28.86,5.62c4.75,1.28,9.46,2.73,14.12,4.39s9.23,3.58,13.73,5.73a97.6,97.6,0,0,1,25.07,16.7,62.38,62.38,0,0,1,9.94,11.89,48.88,48.88,0,0,1,6.27,14.51c.36,1.29.54,2.6.8,3.91s.37,2.62.43,3.94a55.87,55.87,0,0,1,0,7.87,68.74,68.74,0,0,1-3,15.17,104.55,104.55,0,0,1-13.33,27c-11.14,16.55-25.19,30.63-40.32,43.1a277.91,277.91,0,0,1-103.64,53.3,234.31,234.31,0,0,1-28.68,5.72q-7.24,1-14.52,1.58t-14.56.88a309.79,309.79,0,0,1-58.13-3.34,245.35,245.35,0,0,1-28.56-6,166.34,166.34,0,0,1-27.58-10,99.63,99.63,0,0,1-24.84-16.27,61.23,61.23,0,0,1-9.84-11.59A48.33,48.33,0,0,1,64.08,312c-.56-1.17-1-2.39-1.47-3.6s-.83-2.47-1.12-3.74A50.78,50.78,0,0,1,60,289.25a62.88,62.88,0,0,1,2.7-15.05,99.51,99.51,0,0,1,13.1-26.93c2.75-4.13,5.72-8.1,8.84-11.92s6.47-7.44,9.89-11a221.61,221.61,0,0,1,21.9-19.58,308.44,308.44,0,0,1,103.49-52.2Z"/></g></g></svg>