<svg xmlns="http://www.w3.org/2000/svg" xmlns:xlink="http://www.w3.org/1999/xlink" viewBox="0 0 492 492"><defs><style>.cls-1{fill:url(#radial-gradient);}.cls-2{fill:red;}</style><radialGradient id="radial-gradient" cx="246" cy="246" r="246" gradientUnits="userSpaceOnUse"><stop offset="0" stop-color="#f2f2f2"/><stop offset="0.83" stop-color="#e9e9e9"/><stop offset="1" stop-color="#e6e6e6"/></radialGradient></defs><g id="Layer_2" data-name="Layer 2"><g id="Layer_1-2" data-name="Layer 1"><circle class="cls-1" cx="246" cy="246" r="246"/><path class="cls-2" d="M164.5,268.5a11.77,11.77,0,0,1-1.17,1.25,6.35,6.35,0,0,1-2.83,1.75,5,5,0,0,1-2,0c-2.71-.59-3.89-3.71-4-4-7-14.47-11.82-26.57-15-35-3.77-10-7-19.79-14-33-7.82-14.77-12-18.15-15-20-10-6.2-21.35-4.59-26.5-3.5L72,204a15.86,15.86,0,0,1,17-1L76,237a25.55,25.55,0,0,0-11,5,26.19,26.19,0,0,0-9,14,16.24,16.24,0,0,1,6-2,16.46,16.46,0,0,1,8,1l-4,10a28.15,28.15,0,0,0-15,4c-9,5.52-15.45,17-13,28a23.73,23.73,0,0,0,6,11c-1.68-10.51,4.71-20.39,14-23,10.53-3,22.5,4.08,25,16l20-20-3.5-3.5a5,5,0,0,1-3,3,4,4,0,0,1-2,0,10,10,0,0,1-5-3,83.2,83.2,0,0,0-11-9l5.83-12.64a3,3,0,0,1,.17-.36c1.74-2.52,11.64,4.22,23,5a35,35,0,0,0,14-2l17,43,29-29Zm-60-27a31.17,31.17,0,0,1-14-4l11-27a84,84,0,0,1,12,30A30.6,30.6,0,0,1,104.5,241.5Z"/><path class="cls-2" d="M165.5,240.5l3,3a17.44,17.44,0,0,1,3-2c1.42-.75,2.15-1.12,3-1,1.86.26,2.84,2.6,3,3a187,187,0,0,1,0,33.88.62.62,0,0,0,0,.12c-.37,3.58-3.24,5.7-6,7l20,18,20-20-3-3a4.09,4.09,0,0,1-3,2,4,4,0,0,1-4-3v-34a9.8,9.8,0,0,1,17,2v33l-2,3-2,3,19,17,20-20-3-3a6.76,6.76,0,0,1-3,2c-.9.28-2.07.65-3,0a2.8,2.8,0,0,1-1-2v-32c1.43-5,5.71-8.22,10-8,4.08.21,6.59,3.46,7,4v37a11.61,11.61,0,0,1-2,4,11.38,11.38,0,0,1-2,2l18,16,20-20-2-3a6.14,6.14,0,0,1-5,1,5.82,5.82,0,0,1-3-2v-42c-.88-1.8-4.46-8.55-12-11-8.91-2.9-19.75,1.4-26,11-.75-1.19-7-10.83-19-12a25.75,25.75,0,0,0-24,12c-.55-1.08-5.15-9.82-14-11-7.39-1-13.27,3.9-17,7A33.87,33.87,0,0,0,165.5,240.5Z"/><path class="cls-2" d="M297.5,240.5l3,4a4.9,4.9,0,0,1,5-3,4.65,4.65,0,0,1,3,2v37a9.19,9.19,0,0,1-5,5l11,11a27.39,27.39,0,0,0,11,3c15.33.8,25.68-12.27,27-14l17,16,20-20-3-4h0c-4,2.55-6,2-6,2-2.21-.6-3.77-3.54-3.87-3.73,0,0-.07-.13-.13-.27-1.05-2.25-.47-26,0-41-.38-.69-5.62-9.95-14-10-5.36,0-9.44,3.72-13,7a34.93,34.93,0,0,0-7,9l3,5a3.73,3.73,0,0,1,7-1v31c-2.51,5.53-8.2,8.32-13,7s-6.81-6.47-7-7v-42c-.75-1-6.38-8.14-15-8-6.65.1-11.32,4.49-14,7A29.29,29.29,0,0,0,297.5,240.5Z"/><path class="cls-2" d="M388.5,203.5l3,3a7.21,7.21,0,0,1,6-3,6.81,6.81,0,0,1,6,5v69a15.81,15.81,0,0,1-8,6l19,18,23-23-3-2c-.13.15-2.28,2.56-5,2a4.61,4.61,0,0,1-2-1v-83a17.66,17.66,0,0,0-8-10,14,14,0,0,0-9-2c-3.54.57-6.74,4.06-13,11Z"/></g></g></svg>